<?xml version="1.0" encoding="utf-8"?>
<!-- Generator: Adobe Illustrator 22.1.0, SVG Export Plug-In . SVG Version: 6.00 Build 0)  -->
<svg version="1.1" id="Layer_1" xmlns="http://www.w3.org/2000/svg" xmlns:xlink="http://www.w3.org/1999/xlink" x="0px" y="0px"
	 width="71px" height="71px" viewBox="0 0 71 71" enable-background="new 0 0 71 71" xml:space="preserve">
<g>
	<g>
		<path fill="white" d="M35.5,47.6c-6.7,0-12.1-5.4-12.1-12.1c0-6.7,5.4-12.1,12.1-12.1c6.7,0,12.1,5.4,12.1,12.1C47.6,42.2,42.2,47.6,35.5,47.6z
			 M35.5,25.4c-5.6,0-10.1,4.5-10.1,10.1s4.5,10.1,10.1,10.1s10.1-4.5,10.1-10.1S41.1,25.4,35.5,25.4z"/>
	</g>
	<g>
		<path fill="white" d="M71,33.8h-5.8c-0.9-15-12.9-27.1-28-28V0h-3.4v5.8c-15,0.9-27.1,12.9-28,28H0v3.4h5.8c0.9,15,12.9,27.1,28,28V71h3.4v-5.8
			c15-0.9,27.1-12.9,28-28H71V33.8z M35.5,61.8C21,61.8,9.2,50,9.2,35.5S21,9.2,35.5,9.2S61.8,21,61.8,35.5S50,61.8,35.5,61.8z"/>
	</g>
</g>
</svg>
