<?xml version="1.0" encoding="utf-8"?>
<!-- Generator: Adobe Illustrator 18.1.1, SVG Export Plug-In . SVG Version: 6.00 Build 0)  -->
<svg version="1.1"
	 id="Layer_1" inkscape:version="0.91 r13725" sodipodi:docname="icon-trash.svgz" xmlns:inkscape="http://www.inkscape.org/namespaces/inkscape" xmlns:sodipodi="http://sodipodi.sourceforge.net/DTD/sodipodi-0.dtd" xmlns:rdf="http://www.w3.org/1999/02/22-rdf-syntax-ns#" xmlns:cc="http://creativecommons.org/ns#" xmlns:dc="http://purl.org/dc/elements/1.1/" xmlns:svg="http://www.w3.org/2000/svg"
	 xmlns="http://www.w3.org/2000/svg" xmlns:xlink="http://www.w3.org/1999/xlink" x="0px" y="0px" viewBox="8.5 -4 83 83"
	 enable-background="new 8.5 -4 83 83" xml:space="preserve">
<sodipodi:namedview  inkscape:current-layer="Layer_1" inkscape:window-maximized="1" inkscape:pageshadow="2" inkscape:window-y="0" inkscape:pageopacity="0" inkscape:window-x="0" inkscape:window-width="1920" inkscape:window-height="1098" inkscape:zoom="5.686747" id="namedview5310" showgrid="false" inkscape:cy="41.5" guidetolerance="10" bordercolor="#666666" borderopacity="1" objecttolerance="10" gridtolerance="10" inkscape:cx="41.5" pagecolor="#ffffff">
	</sodipodi:namedview>
<circle id="circle5298" fill="#8D98A5" cx="50" cy="37.5" r="41.5"/>
<g>
	<g>
		<polygon fill="#D7E5F4" points="41.7,51.3 35.3,51.3 34,48.1 35.3,30.9 41.7,30.9 42.6,48.1 		"/>
		<polygon fill="#D7E5F4" points="54.1,51.3 47.7,51.3 46.4,48.1 47.7,30.9 54.1,30.9 55,48.1 		"/>
		<polygon fill="#D7E5F4" points="66.5,51.3 60.1,51.3 58.9,48.1 60.1,30.9 66.5,30.9 67.4,48.1 		"/>
	</g>
	<path fill="#D7E5F4" d="M72.2,53.8c0,0.9-1,1.7-2.2,1.7H31.4c-1.2,0-2.2-0.8-2.2-1.7c0-0.9,1-1.7,2.2-1.7H70
		C71.2,52.1,72.2,52.9,72.2,53.8z"/>
	<path fill="#D7E5F4" d="M76.2,58.3c0,0.9-1,1.7-2.2,1.7H27.4c-1.2,0-2.2-0.8-2.2-1.7s1-1.7,2.2-1.7H74
		C75.2,56.6,76.2,57.3,76.2,58.3z"/>
	<path fill="#D7E5F4" d="M73.5,27.5c0,1.1-0.9,2-2,2H30c-1.1,0-2-0.9-2-2V26c0-1.1,0.9-2,2-2h41.5c1.1,0,2,0.9,2,2V27.5z"/>
	<path fill="#D7E5F4" d="M37.3,22.2c-1.1,0-1.3-0.5-0.4-1.1L49,12.7c0.9-0.6,2.4-0.6,3.3,0l12.1,8.3c0.9,0.6,0.8,1.1-0.4,1.1H37.3z"
		/>
</g>
</svg>
