<?xml version="1.0" encoding="utf-8"?>
<!-- Generator: Adobe Illustrator 18.1.1, SVG Export Plug-In . SVG Version: 6.00 Build 0)  -->
<svg version="1.1"
	 id="Layer_1" inkscape:version="0.91 r13725" sodipodi:docname="icon-trash.svgz" xmlns:inkscape="http://www.inkscape.org/namespaces/inkscape" xmlns:sodipodi="http://sodipodi.sourceforge.net/DTD/sodipodi-0.dtd" xmlns:rdf="http://www.w3.org/1999/02/22-rdf-syntax-ns#" xmlns:cc="http://creativecommons.org/ns#" xmlns:dc="http://purl.org/dc/elements/1.1/" xmlns:svg="http://www.w3.org/2000/svg"
	 xmlns="http://www.w3.org/2000/svg" xmlns:xlink="http://www.w3.org/1999/xlink" x="0px" y="0px" viewBox="8.5 -4 83 83"
	 enable-background="new 8.5 -4 83 83" xml:space="preserve">
<sodipodi:namedview  inkscape:current-layer="Layer_1" inkscape:window-maximized="1" inkscape:pageshadow="2" inkscape:window-y="0" inkscape:pageopacity="0" inkscape:window-x="0" inkscape:window-width="1920" inkscape:window-height="1098" inkscape:zoom="5.686747" id="namedview5310" showgrid="false" inkscape:cy="41.5" guidetolerance="10" bordercolor="#666666" borderopacity="1" objecttolerance="10" gridtolerance="10" inkscape:cx="41.5" pagecolor="#ffffff">
	</sodipodi:namedview>
<circle id="circle5298" fill="#8D98A5" cx="50" cy="37.5" r="41.5"/>
<path id="polygon6389" fill="#D7E5F4" d="M70.2,28.3L69,29.5l-1.2-1.2l-1.3,1.3l1.2,1.2L66.6,32l1.3,1.3l1.2-1.2l1.2,1.2l1.3-1.3
	l-1.2-1.2l1.2-1.2L70.2,28.3z M43.9,34.2c-0.1-0.1-0.2-0.3-0.3-0.4L42.1,35c0.1,0.1,0.2,0.3,0.3,0.4c0.4,0.5,0.8,1,1.3,1.5l1.3-1.3
	C44.6,35.1,44.3,34.7,43.9,34.2z M55.1,37.4l0.8,1.6c0.8-0.4,1.5-0.8,2.2-1.5l-1.2-1.4C56.3,36.7,55.7,37.1,55.1,37.4z M36,32.3
	c0.3-0.1-0.2-0.1,0.1-0.2l-0.6-1.7c-0.4,0.1-0.7,0.3-1.1,0.5c-0.4,0.2-0.9,0.6-1.3,0.9l1.2,1.3C34.7,32.8,35.7,32.4,36,32.3z
	 M32.6,36.3c0.2-0.7,0.4-1.3,0.8-1.9l-1.5-1c-0.6,0.8-0.8,1.6-1.1,2.3l0,0.1l1.7,0.6C32.5,36.4,32.6,36.3,32.6,36.3z M75.3,22.6
	l-12-8c-0.5-0.4-1.2-0.4-1.7,0L50.5,22l-11.1-7.5c-0.5-0.4-1.2-0.4-1.7,0l-12,8c-0.5,0.3-0.8,0.9-0.8,1.6v32.1
	c0,0.7,0.3,1.3,0.8,1.6c0.5,0.3,1.2,0.3,1.7,0l11.1-7.5l11.1,7.5c0.5,0.4,1.2,0.4,1.7,0l11.1-7.5l11.1,7.5c0.3,0.2,0.6,0.3,0.9,0.3
	c0.3,0,0.6-0.1,0.8-0.2c0.5-0.3,0.8-1,0.8-1.6V24.2C76.1,23.6,75.8,22.9,75.3,22.6z M36.7,47.4L28.6,53V25.4l8.1-5.6V47.4z
	 M40.4,47.3v-14c0.1,0.1,0.2,0.1,0.3,0.2l1.1-1.5c-0.4-0.3-0.9-0.6-1.4-0.9V19.7l8.3,5.6v12.4c-0.6-0.2-1.2-0.5-1.9-0.9l-1,1.6
	c0.8,0.5,1.6,0.9,2.4,1.1l0.5-1.5v14.9C48.7,52.9,40.4,47.3,40.4,47.3z M52.4,52.9V40c0,0,0,0,0.1,0c0.3,0,0.7-0.1,1-0.1L53.1,38
	c-0.2,0-0.5,0.1-0.8,0.1V25.3l8.3-5.6v13.6l-0.6-0.5c-0.3,0.4-0.7,0.8-1,1.1c-0.2,0.2-0.4,0.5-0.6,0.7l1.4,1.2
	c0.2-0.2,0.4-0.5,0.6-0.7c0.1-0.1,0.1-0.2,0.2-0.2v12.5C60.7,47.3,52.4,52.9,52.4,52.9z M72.5,52.9l-8.1-5.5V31.7
	c0.4-0.2,0.8-0.3,1.3-0.4l-0.4-1.8c-0.3,0.1-0.6,0.1-0.9,0.2v-10l8.1,5.5L72.5,52.9L72.5,52.9z"/>
</svg>
