<?xml version="1.0" encoding="utf-8"?>
<!-- Generator: Adobe Illustrator 18.1.1, SVG Export Plug-In . SVG Version: 6.00 Build 0)  -->
<svg version="1.1"
	 id="Layer_1" inkscape:version="0.91 r13725" sodipodi:docname="icon-trash.svgz" xmlns:inkscape="http://www.inkscape.org/namespaces/inkscape" xmlns:sodipodi="http://sodipodi.sourceforge.net/DTD/sodipodi-0.dtd" xmlns:rdf="http://www.w3.org/1999/02/22-rdf-syntax-ns#" xmlns:cc="http://creativecommons.org/ns#" xmlns:dc="http://purl.org/dc/elements/1.1/" xmlns:svg="http://www.w3.org/2000/svg"
	 xmlns="http://www.w3.org/2000/svg" xmlns:xlink="http://www.w3.org/1999/xlink" x="0px" y="0px" viewBox="8.5 -4 83 83"
	 enable-background="new 8.5 -4 83 83" xml:space="preserve">
<sodipodi:namedview  inkscape:current-layer="Layer_1" inkscape:window-maximized="1" inkscape:pageshadow="2" inkscape:window-y="0" inkscape:pageopacity="0" inkscape:window-x="0" inkscape:window-width="1920" inkscape:window-height="1098" inkscape:zoom="5.686747" id="namedview5310" showgrid="false" inkscape:cy="41.5" guidetolerance="10" bordercolor="#666666" borderopacity="1" objecttolerance="10" gridtolerance="10" inkscape:cx="41.5" pagecolor="#ffffff">
	</sodipodi:namedview>
<circle id="circle5298" fill="#8D98A5" cx="50" cy="37.5" r="41.5"/>
<g>
	<path fill="#D7E5F4" d="M72.6,31.7c0.8-0.3,1.6-0.6,1.8-0.7c0.5-0.2,1.1-0.2,1.1-1.8c0-1.5-1.2-1.6-1.2-1.6s-2.6,0-3.4,0
		c-0.7,0-0.8,0.6-0.8,0.6V30L69.3,30c-0.6-1.8-2.4-7.1-3.3-8.9c-1.1-2.2-1.9-2.3-1.9-2.3c-5.7-0.8-9.9-1.1-12.4-1.1
		c-0.3,0-0.6,0-1,0c0,0-0.1,0-0.1,0c0,0-0.1,0-0.1,0c-0.4,0-0.7,0-1,0c-2.6,0.1-6.7,0.3-12.4,1.1c0,0-0.8,0.1-1.9,2.3
		c-0.9,1.8-2.7,7.1-3.3,8.9L31.2,30v-1.8c0,0-0.1-0.6-0.8-0.6c-0.7,0-3.4,0-3.4,0s-1.2,0.1-1.2,1.6c0,1.5,0.6,1.5,1.1,1.8
		c0.2,0.1,1,0.4,1.7,0.7c-1.4,0.6-2.7,1.9-2.7,4.7c0,2.9,0,11.4,0,11.4s0,1.3,0.9,2.3v4.9c0,1.1,0.9,2,2,2H31c1.1,0,2-0.9,2-2v-3.8
		c3.4,0,8.3,0,12.3,0h4.3c0,0,0.7,0,1.9,0c1.1,0,2.6,0,4.3,0c3.9,0,8.8,0,12.1,0v3.8c0,1.1,0.9,2,2,2h2.3c1.1,0,2-0.9,2-2v-4.7
		c1-1,1-2.4,1-2.4s0-8.5,0-11.4C75.2,33.7,74,32.3,72.6,31.7z M33.6,29.6c0,0,2-6,2.9-7.8c0.9-1.8,1.6-1.9,1.6-1.9
		c7.2-1.1,11.5-0.9,12.4-0.9c0.9,0,5.2-0.2,12.4,0.9c0,0,0.7,0.1,1.6,1.9c0.9,1.8,2.9,7.8,2.9,7.8s0.4,1.3-0.9,1.4
		c-1.3,0-14.4-0.2-16-0.3c-1.6,0-14.7,0.3-16,0.3C33.2,31,33.6,29.6,33.6,29.6z M29.4,42.4c-0.4,0-0.4-0.3-0.4-0.3s0-2.3,0-3.8
		c0-1.5,1.1-1.3,1.1-1.3s4.8,0.1,5.9,0.2c1.1,0.1,1.2,0.9,1.2,0.9v4c0,0.3-0.3,0.3-0.3,0.3S29.8,42.4,29.4,42.4z M36.1,48.6
		c-0.7,0-1.4-0.6-1.4-1.4c0-0.7,0.6-1.4,1.4-1.4c0.7,0,1.4,0.6,1.4,1.4C37.4,47.9,36.8,48.6,36.1,48.6z M61.9,41.1H39.4
		c-0.2,0-0.4-0.1-0.4-0.2c0-0.1,0.2-0.2,0.4-0.2h22.6c0.2,0,0.4,0.1,0.4,0.2C62.3,41,62.1,41.1,61.9,41.1z M61.9,40.4H39.4
		c-0.2,0-0.4-0.1-0.4-0.2c0-0.1,0.2-0.2,0.4-0.2h22.6c0.2,0,0.4,0.1,0.4,0.2C62.3,40.3,62.1,40.4,61.9,40.4z M61.9,39.7H39.4
		c-0.2,0-0.4-0.1-0.4-0.2c0-0.1,0.2-0.2,0.4-0.2h22.6c0.2,0,0.4,0.1,0.4,0.2C62.3,39.6,62.1,39.7,61.9,39.7z M65.2,48.6
		c-0.7,0-1.4-0.6-1.4-1.4c0-0.7,0.6-1.4,1.4-1.4c0.7,0,1.4,0.6,1.4,1.4C66.5,47.9,65.9,48.6,65.2,48.6z M72.3,42.1
		c0,0,0,0.3-0.4,0.3c-0.4,0-7.5,0-7.5,0s-0.3,0-0.3-0.3v-4c0,0,0.1-0.8,1.2-0.9c1.1-0.1,5.9-0.2,5.9-0.2s1.1-0.2,1.1,1.3
		C72.3,39.8,72.3,42.1,72.3,42.1z"/>
</g>
</svg>
