<?xml version="1.0" encoding="utf-8"?>
<!-- Generator: Adobe Illustrator 18.1.1, SVG Export Plug-In . SVG Version: 6.00 Build 0)  -->
<svg version="1.1" id="Layer_1" xmlns:sketch="http://www.bohemiancoding.com/sketch/ns"
	 xmlns="http://www.w3.org/2000/svg" xmlns:xlink="http://www.w3.org/1999/xlink" x="0px" y="0px" viewBox="-72 -4 83 83"
	 enable-background="new -72 -4 83 83" xml:space="preserve">
<circle fill="#8D98A5" cx="-30.5" cy="37.5" r="41.5"/>
<title></title>
<g id="miu">
	<g id="editor_trash_delete_recycle_bin_glyph">
		<g>
			<path id="path-1" fill="#D7E5F4" d="M-48,18.4c0,0-1,0-1,1.9s1,1.9,1,1.9h35c0,0,1,0,1-1.9s-1-1.9-1-1.9H-48L-48,18.4z
				 M-47.1,24.3H-14l-3.9,35.1h-25.3L-47.1,24.3z M-33.5,16.5c-1.9,0-1.9,1.9-1.9,1.9h9.7c0,0,0-1.9-1.9-1.9H-33.5L-33.5,16.5z
				 M-37.4,55.4h1.9l-1.9-31.2h-1.9L-37.4,55.4z M-23.7,24.2l-1.9,31.2h1.9l1.9-31.2H-23.7L-23.7,24.2z M-31.5,24.2v31.2h1.9V24.2
				H-31.5L-31.5,24.2z"/>
		</g>
		<g>
			<path id="path-1_1_" fill="#D7E5F4" d="M-48,18.4c0,0-1,0-1,1.9s1,1.9,1,1.9h35c0,0,1,0,1-1.9s-1-1.9-1-1.9H-48L-48,18.4z
				 M-47.1,24.3H-14l-3.9,35.1h-25.3L-47.1,24.3z M-33.5,16.5c-1.9,0-1.9,1.9-1.9,1.9h9.7c0,0,0-1.9-1.9-1.9H-33.5L-33.5,16.5z
				 M-37.4,55.4h1.9l-1.9-31.2h-1.9L-37.4,55.4z M-23.7,24.2l-1.9,31.2h1.9l1.9-31.2H-23.7L-23.7,24.2z M-31.5,24.2v31.2h1.9V24.2
				H-31.5L-31.5,24.2z"/>
		</g>
	</g>
</g>
</svg>
