<svg xmlns:rdf="http://www.w3.org/1999/02/22-rdf-syntax-ns#" xmlns="http://www.w3.org/2000/svg" height="43.85" width="338.8531" version="1.1" xmlns:cc="http://creativecommons.org/ns#" xmlns:dc="http://purl.org/dc/elements/1.1/" viewBox="0 0 338.85312 43.849999">
 <g transform="translate(-73.12857 -466.1161)">
  <g style="stroke:#ffffff;stroke-width:2;fill:#000000">
   <path style="stroke:#ffffff;stroke-width:2" d="m90.89107 485.9486q0.45 0.855 0.855 1.7775 0.4275 0.9225 0.81 1.89 0.3825-0.99 0.81-1.9125 0.4275-0.945 0.8775-1.8225l8.414996-16.56q0.225-0.4275 0.45-0.6525 0.2475-0.2475 0.54-0.36t0.6525-0.135q0.3825-0.0225 0.8775-0.0225h5.805v32.7825h-6.705v-18.855q0-1.3725 0.135-2.97l-8.684996 16.8525q-0.405 0.7875-1.1025 1.1925-0.675 0.405-1.5525 0.405h-1.035q-0.8775 0-1.575-0.405-0.675-0.405-1.08-1.1925l-8.73-16.875q0.09 0.7875 0.135 1.575 0.045 0.765 0.045 1.4175v18.855h-6.705v-32.7825h5.805q0.495 0 0.855 0.0225 0.3825 0.0225 0.675 0.135t0.5175 0.36q0.2475 0.225 0.4725 0.6525l8.4375 16.6275z"/>
   <path style="stroke:#ffffff;stroke-width:2" d="m125.944 506.9861q-0.315 0.6975-0.765 1.0125-0.45 0.3375-1.44 0.3375h-5.22l4.5-9.45-9.315-21.285h6.165q0.81 0 1.26 0.36t0.63 0.855l3.825 10.0575q0.54 1.395 0.8775 2.79 0.225-0.72 0.495-1.4175t0.5175-1.4175l3.465-10.0125q0.18-0.5175 0.6975-0.855 0.54-0.36 1.1475-0.36h5.625l-12.465 29.385z"/>
   <path style="stroke:#ffffff;stroke-width:2" d="m149.9782 500.9336v-32.7825h12.06q3.3975 0 5.7825 0.63t3.8925 1.7775 2.1825 2.79q0.6975 1.6425 0.6975 3.6675 0 1.1025-0.315 2.1375-0.315 1.0125-0.99 1.9125t-1.7325 1.6425q-1.0575 0.72-2.5425 1.26 3.24 0.7875 4.7925 2.565 1.5525 1.755 1.5525 4.5225 0 2.0925-0.81 3.8925t-2.385 3.15q-1.5525 1.3275-3.8475 2.0925-2.295 0.7425-5.2425 0.7425h-13.095zm7.605-13.905v8.1675h5.355q1.5075 0 2.4525-0.3825 0.9675-0.3825 1.5075-0.99t0.7425-1.3725 0.2025-1.5525q0-0.9-0.2475-1.62-0.225-0.72-0.81-1.215-0.5625-0.495-1.5075-0.765t-2.385-0.27h-5.31zm0-5.085h3.96q1.26 0 2.2725-0.18t1.71-0.63q0.72-0.45 1.08-1.2375 0.3825-0.7875 0.3825-1.98 0-1.17-0.2925-1.935-0.2925-0.7875-0.9-1.26t-1.5525-0.675q-0.9225-0.2025-2.205-0.2025h-4.455v8.1z"/>
   <path style="stroke:#ffffff;stroke-width:2" d="m186.7094 467.2511v33.6825h-6.975v-33.6825h6.975z"/>
   <path style="stroke:#ffffff;stroke-width:2" d="m202.6486 477.2411q2.655 0 4.8375 0.8325t3.735 2.385q1.575 1.5525 2.43 3.78 0.8775 2.205 0.8775 4.9725 0 2.79-0.8775 5.04-0.855 2.2275-2.43 3.8025-1.5525 1.5525-3.735 2.4075-2.1825 0.8325-4.8375 0.8325-2.6775 0-4.8825-0.8325-2.1825-0.855-3.78-2.4075-1.575-1.575-2.4525-3.8025-0.855-2.25-0.855-5.04 0-2.7675 0.855-4.9725 0.8775-2.2275 2.4525-3.78 1.5975-1.5525 3.78-2.385 2.205-0.8325 4.8825-0.8325zm0 18.8775q2.4075 0 3.5325-1.6875 1.1475-1.71 1.1475-5.175t-1.1475-5.1525q-1.125-1.6875-3.5325-1.6875-2.475 0-3.6225 1.6875t-1.1475 5.1525 1.1475 5.175q1.1475 1.6875 3.6225 1.6875z"/>
   <path style="stroke:#ffffff;stroke-width:2" d="m228.7521 477.2411q2.655 0 4.8375 0.8325t3.735 2.385q1.575 1.5525 2.43 3.78 0.8775 2.205 0.8775 4.9725 0 2.79-0.8775 5.04-0.855 2.2275-2.43 3.8025-1.5525 1.5525-3.735 2.4075-2.1825 0.8325-4.8375 0.8325-2.6775 0-4.8825-0.8325-2.1825-0.855-3.78-2.4075-1.575-1.575-2.4525-3.8025-0.855-2.25-0.855-5.04 0-2.7675 0.855-4.9725 0.8775-2.2275 2.4525-3.78 1.5975-1.5525 3.78-2.385 2.205-0.8325 4.8825-0.8325zm0 18.8775q2.4075 0 3.5325-1.6875 1.1475-1.71 1.1475-5.175t-1.1475-5.1525q-1.125-1.6875-3.5325-1.6875-2.475 0-3.6225 1.6875t-1.1475 5.1525 1.1475 5.175q1.1475 1.6875 3.6225 1.6875z"/>
   <path style="stroke:#ffffff;stroke-width:2" d="m244.4606 500.9336v-23.3325h4.32q0.6525 0 1.08 0.2925 0.45 0.2925 0.63 0.8775l0.3825 1.26q0.585-0.6075 1.215-1.1025 0.63-0.5175 1.35-0.8775 0.7425-0.3825 1.575-0.585 0.855-0.225 1.8675-0.225 2.115 0 3.4875 1.1025 1.395 1.08 2.115 2.9025 0.585-1.08 1.4175-1.845 0.855-0.765 1.8225-1.2375 0.99-0.4725 2.07-0.6975 1.1025-0.225 2.1825-0.225 2.0025 0 3.555 0.6075 1.5525 0.585 2.5875 1.7325 1.0575 1.125 1.5975 2.79 0.54 1.6425 0.54 3.735v14.8275h-6.975v-14.8275q0-3.6225-3.105-3.6225-1.4175 0-2.3625 0.945-0.9225 0.9225-0.9225 2.6775v14.8275h-6.975v-14.8275q0-2.0025-0.7875-2.8125t-2.3175-0.81q-0.945 0-1.8 0.4275-0.8325 0.4275-1.575 1.1475v16.875h-6.975z"/>
   <path style="stroke:#ffffff;stroke-width:2" d="m290.4204 477.6011v23.3325h-6.975v-23.3325h6.975zm0.81-6.39q0 0.8325-0.3375 1.575-0.3375 0.72-0.9225 1.2825-0.585 0.54-1.3725 0.8775-0.765 0.315-1.6425 0.315-0.855 0-1.5975-0.315-0.7425-0.3375-1.3275-0.8775-0.5625-0.5625-0.9-1.2825-0.315-0.7425-0.315-1.575 0-0.855 0.315-1.5975 0.3375-0.7425 0.9-1.305 0.585-0.5625 1.3275-0.8775t1.5975-0.315q0.8775 0 1.6425 0.315 0.7875 0.315 1.3725 0.8775t0.9225 1.305 0.3375 1.5975z"/>
   <path style="stroke:#ffffff;stroke-width:2" d="m296.0524 500.9336v-23.3325h4.32q0.6525 0 1.08 0.2925 0.45 0.2925 0.63 0.8775l0.405 1.35q0.675-0.63 1.395-1.17t1.53-0.9q0.8325-0.3825 1.7775-0.585 0.9675-0.225 2.0925-0.225 1.9125 0 3.375 0.675 1.485 0.6525 2.4975 1.845 1.0125 1.17 1.53 2.8125 0.5175 1.62 0.5175 3.5325v14.8275h-6.975v-14.8275q0-1.71-0.7875-2.655-0.7875-0.9675-2.3175-0.9675-1.1475 0-2.16 0.495t-1.935 1.3275v16.6275h-6.975z"/>
   <path style="stroke:#ffffff;stroke-width:2" d="m330.3909 477.1961q1.485 0 2.79 0.2925 1.3275 0.2925 2.4525 0.8325h7.0425v2.5425q0 0.585-0.3375 0.9225-0.315 0.3375-1.1025 0.5175l-1.71 0.3825q0.315 1.0125 0.315 2.0925 0 1.755-0.7425 3.15-0.72 1.395-2.0025 2.385-1.26 0.9675-2.9925 1.5075-1.7325 0.5175-3.7125 0.5175-1.1025 0-2.07-0.135-0.765 0.45-0.765 1.035t0.6075 0.855q0.63 0.2475 1.6425 0.36 1.0125 0.09 2.3175 0.135 1.305 0.0225 2.655 0.1575 1.35 0.1125 2.655 0.405t2.3175 0.945 1.62 1.755q0.63 1.08 0.63 2.7675 0 1.575-0.765 3.0825t-2.25 2.6775-3.645 1.8675q-2.16 0.72-4.95 0.72-2.745 0-4.7475-0.5175-1.98-0.5175-3.3075-1.3725-1.305-0.8325-1.935-1.935t-0.63-2.295q0-1.5525 0.945-2.61 0.945-1.08 2.5875-1.6875-0.7875-0.5175-1.26-1.3275t-0.4725-2.0475q0-0.5175 0.18-1.08 0.18-0.585 0.5625-1.125t0.9675-1.035 1.395-0.8775q-1.8225-0.9675-2.88-2.565-1.035-1.5975-1.035-3.7125 0-1.755 0.7425-3.15 0.7425-1.4175 2.025-2.385 1.305-0.99 3.06-1.5075 1.755-0.54 3.8025-0.54zm5.175 24.5925q0-0.5625-0.36-0.9-0.3375-0.3375-0.945-0.54-0.585-0.2025-1.395-0.2925-0.7875-0.09-1.71-0.135t-1.9125-0.0675q-0.99-0.045-1.9575-0.1575-0.6525 0.45-1.08 1.0125-0.405 0.54-0.405 1.2375 0 0.495 0.2025 0.9 0.225 0.405 0.765 0.6975t1.44 0.45q0.9225 0.18 2.3175 0.18 1.5075 0 2.475-0.18t1.53-0.495q0.585-0.315 0.81-0.765 0.225-0.4275 0.225-0.945zm-5.175-13.7475q1.7325 0 2.4975-0.855 0.7875-0.8775 0.7875-2.25 0-1.4175-0.7875-2.2275-0.765-0.81-2.4975-0.81t-2.52 0.81q-0.765 0.81-0.765 2.2275 0 0.675 0.18 1.2375 0.2025 0.5625 0.6075 0.99 0.405 0.405 1.0125 0.6525 0.63 0.225 1.485 0.225z"/>
   <path style="stroke:#ffffff;stroke-width:2" d="m353.9006 501.2936q-1.665 0-2.9475-0.4725-1.26-0.495-2.1375-1.3725-0.855-0.9-1.305-2.16t-0.45-2.8125v-12.06h-1.98q-0.54 0-0.9225-0.3375-0.3825-0.36-0.3825-1.035v-2.7225l3.7125-0.72 1.3725-5.6925q0.27-1.08 1.53-1.08h3.645v6.8175h5.67v4.77h-5.67v11.5875q0 0.81 0.3825 1.35 0.405 0.5175 1.1475 0.5175 0.3825 0 0.63-0.0675 0.27-0.09 0.45-0.18 0.2025-0.1125 0.36-0.18 0.18-0.09 0.405-0.09 0.315 0 0.495 0.1575 0.2025 0.135 0.405 0.45l2.115 3.3075q-1.35 1.0125-3.0375 1.53-1.6875 0.495-3.4875 0.495z"/>
   <path style="stroke:#ffffff;stroke-width:2" d="m374.1232 477.2411q2.655 0 4.8375 0.8325t3.735 2.385q1.575 1.5525 2.43 3.78 0.8775 2.205 0.8775 4.9725 0 2.79-0.8775 5.04-0.855 2.2275-2.43 3.8025-1.5525 1.5525-3.735 2.4075-2.1825 0.8325-4.8375 0.8325-2.6775 0-4.8825-0.8325-2.1825-0.855-3.78-2.4075-1.575-1.575-2.4525-3.8025-0.855-2.25-0.855-5.04 0-2.7675 0.855-4.9725 0.8775-2.2275 2.4525-3.78 1.5975-1.5525 3.78-2.385 2.205-0.8325 4.8825-0.8325zm0 18.8775q2.4075 0 3.5325-1.6875 1.1475-1.71 1.1475-5.175t-1.1475-5.1525q-1.125-1.6875-3.5325-1.6875-2.475 0-3.6225 1.6875t-1.1475 5.1525 1.1475 5.175q1.1475 1.6875 3.6225 1.6875z"/>
   <path style="stroke:#ffffff;stroke-width:2" d="m389.8317 500.9336v-23.3325h4.32q0.6525 0 1.08 0.2925 0.45 0.2925 0.63 0.8775l0.405 1.35q0.675-0.63 1.395-1.17t1.53-0.9q0.8325-0.3825 1.7775-0.585 0.9675-0.225 2.0925-0.225 1.9125 0 3.375 0.675 1.485 0.6525 2.4975 1.845 1.0125 1.17 1.53 2.8125 0.5175 1.62 0.5175 3.5325v14.8275h-6.975v-14.8275q0-1.71-0.7875-2.655-0.7875-0.9675-2.3175-0.9675-1.1475 0-2.16 0.495t-1.935 1.3275v16.6275h-6.975z"/>
  </g>
 </g>
</svg>
